<svg viewBox="0 0 500 500" xmlns="http://www.w3.org/2000/svg"><g fill="none" fill-rule="evenodd"><path fill="#fff" d="m21 89h462v322h-462z"/><path stroke="#979797" fill="#c3dfff" d="m91 180h239v175h-239z"/><path d="m92.99 278.12c0-1.656.919-3.975 2.057-5.179 0 0 45.907-48.949 51.958-48.949 6.05 0 52.753 61.919 52.753 61.919.998 1.317 2.639 1.321 3.665.025 0 0 22.02-28.525 28.709-28.525 6.684 0 69.06 95.31 69.06 95.31 0 0-5.239 0-10.969 0-5.73 0-195.05 3.561-197.24 3.561-4.778 0-.218-59.62-.218-59.62.12-1.656.218-4.347.218-5.998v-12.539" fill="#9b9b9b"/><g><ellipse fill="#f6d123" cx="281.56" cy="225.39" rx="13.59" ry="13.598"/><path d="m299.65 350.36h20.981c1.644 0 2.997-1.346 2.997-3.01v-161.04c0-1.662-1.342-3.01-2.997-3.01h-224.39c-1.644 0-2.997 1.346-2.997 3.01v90.08c.35-1.294 1.025-2.634 1.801-3.456 0 0 45.907-48.949 51.958-48.949 6.05 0 52.753 61.919 52.753 61.919.998 1.317 2.639 1.321 3.665.025 0 0 22.02-28.525 28.709-28.525 6.06 0 57.865 78.29 67.52 92.96m-12.587 0h-190.82c-1.655 0-2.997-1.345-2.997-3.01v-55.53c.353.557 1.037.473 1.821-.347 0 0 47.16-49.55 51.937-49.55 2.186 0 50.09 57.41 50.09 57.41 12.44 6.378 28.523-28.484 35.04-24.22 2.968 1.942 42.507 62.47 54.931 75.25m110.34-211.09h80.25v-10.36h-451.7v-30.669c0-1.657 1.34-3 2.997-3h447c1.655 0 2.997 1.346 2.997 3v303.51c0 1.657-1.34 3-2.997 3h-447c-1.655 0-2.997-1.346-2.997-3v-262.48h359.81v265.48h11.649v-265.48m-384.4-55.28c0-1.656 1.342-2.999 3-2.999h469c1.658 0 3 1.344 3 2.999v332c0 1.656-1.342 2.999-3 2.999h-469c-1.658 0-3-1.344-3-2.999v-332m67.3 88.06c0-1.653 1.348-2.993 3-2.993h250.27c1.657 0 3 1.353 3 2.993v189.56c0 1.653-1.348 2.993-3 2.993h-250.27c-1.657 0-3-1.353-3-2.993v-189.56m333.92 145.06c0-1.661 1.337-3.01 3.01-3.01h42.1c1.662 0 3.01 1.335 3.01 3.01v42.938c0 1.661-1.337 3.01-3.01 3.01h-42.1c-1.662 0-3.01-1.335-3.01-3.01v-42.938m0-145.04c0-1.661 1.337-3.01 3.01-3.01h42.1c1.662 0 3.01 1.335 3.01 3.01v42.938c0 1.661-1.337 3.01-3.01 3.01h-42.1c-1.662 0-3.01-1.335-3.01-3.01v-42.938m0 72.52c0-1.661 1.337-3.01 3.01-3.01h42.1c1.662 0 3.01 1.335 3.01 3.01v42.938c0 1.661-1.337 3.01-3.01 3.01h-42.1c-1.662 0-3.01-1.335-3.01-3.01v-42.938m7.766 9.06c0-1.658 1.34-3 3-3h27.649c1.657 0 3 1.352 3 3v25.455c0 1.658-1.34 3-3 3h-27.649c-1.657 0-3-1.352-3-3v-25.455m0-72.52c0-1.658 1.34-3 3-3h27.649c1.657 0 3 1.352 3 3v25.455c0 1.658-1.34 3-3 3h-27.649c-1.657 0-3-1.352-3-3v-25.455m0 145.04c0-1.658 1.34-3 3-3h27.649c1.657 0 3 1.352 3 3v25.455c0 1.658-1.34 3-3 3h-27.649c-1.657 0-3-1.352-3-3v-25.455m-5.824-205.03c4.646 0 8.413-3.769 8.413-8.418 0-4.649-3.767-8.418-8.413-8.418-4.646 0-8.413 3.769-8.413 8.418 0 4.649 3.767 8.418 8.413 8.418m22 0c4.646 0 8.413-3.769 8.413-8.418 0-4.649-3.767-8.418-8.413-8.418-4.646 0-8.413 3.769-8.413 8.418 0 4.649 3.767 8.418 8.413 8.418m22 0c4.646 0 8.413-3.769 8.413-8.418 0-4.649-3.767-8.418-8.413-8.418-4.646 0-8.413 3.769-8.413 8.418 0 4.649 3.767 8.418 8.413 8.418m-178.61 126.91c12.509 0 22.65-10.146 22.65-22.663 0-12.516-10.141-22.663-22.65-22.663-12.509 0-22.65 10.146-22.65 22.663 0 12.516 10.141 22.663 22.65 22.663m0-9.07c7.506 0 13.59-6.088 13.59-13.598 0-7.51-6.084-13.598-13.59-13.598-7.506 0-13.59 6.088-13.59 13.598 0 7.51 6.084 13.598 13.59 13.598" fill="#000"/></g></g></svg>