<?xml version="1.0" encoding="UTF-8" standalone="no"?>
<svg width="713px" height="493px" viewBox="0 0 713 493" version="1.1" xmlns="http://www.w3.org/2000/svg" xmlns:xlink="http://www.w3.org/1999/xlink" xmlns:sketch="http://www.bohemiancoding.com/sketch/ns">
    <!-- Generator: Sketch 3.5.1 (25234) - http://www.bohemiancoding.com/sketch -->
    <title>Map 2</title>
    <desc>Created with Sketch.</desc>
    <defs></defs>
    <g id="Page-1" stroke="none" stroke-width="1" fill="none" fill-rule="evenodd" sketch:type="MSPage">
        <g id="Map-2" sketch:type="MSArtboardGroup">
            <rect id="Rectangle-66" fill="#D2E5C7" sketch:type="MSShapeGroup" x="0" y="0" width="713" height="493"></rect>
            <path d="M356.5,380.660156 C337.570737,369.737193 339.780881,293.581859 342.249999,270.574219 C345.066113,244.333223 422.640092,199.420313 430.554688,178.628906 C447.951233,132.9287 502.589838,152.402344 502.589838,152.402344 C502.589838,152.402344 542.835465,128.194992 535.378901,171.851562 C533.93167,180.324784 551.172948,170.271645 550.007807,178.628906 C542.600797,231.757522 521.284183,299.13293 509.249994,319.234375 C485.569457,358.78943 444.690106,270.574219 430.554689,270.574219 C406.356773,270.574219 411,336 411,336 C411,336 373.092727,390.234842 356.5,380.660156 Z M539.734373,123.007807 C520.80511,112.084844 480.780881,130.581861 483.249999,107.574221 C486.066113,81.3332246 559.284622,20.7914064 567.199217,6.01485866e-08 C584.595763,-45.7002061 643.589838,-10.5976545 643.589838,-10.5976545 C643.589838,-10.5976545 745.276884,-33.0432895 737.820319,10.6132814 C736.373088,19.0865024 749.854508,48.8985517 737.820319,68.9999963 C721.310723,96.5769869 695.491697,44.5763271 651.375006,46.8164025 C632.212924,47.7893792 603.553924,102.988278 599.273436,102.988278 C575.075519,102.988278 613.001105,131.644528 613.001105,131.644528 C613.001105,131.644528 556.3271,132.582493 539.734373,123.007807 Z M-11.7659134,390.007807 C-30.6951765,379.084844 -70.7194059,397.581861 -68.2502872,374.574221 C-65.4341735,348.333225 -24.4497538,233.115625 -16.5351581,212.324219 C0.86138784,166.624013 92.0895515,256.402346 92.0895515,256.402346 C92.0895515,256.402346 193.776597,233.956711 186.320032,277.613281 C184.872802,286.086502 198.354221,315.898552 186.320032,335.999996 C169.810437,363.576987 256.144029,387.767733 212.027338,390.007809 C192.865256,390.980785 52.0536374,369.988278 47.7731496,369.988278 C23.5752329,369.988278 61.5008183,398.644528 61.5008183,398.644528 C61.5008183,398.644528 4.82681355,399.582493 -11.7659134,390.007807 Z" id="Rectangle-74" fill="#E7E7E7" sketch:type="MSShapeGroup"></path>
            <path d="M306.425781,225.326172 C304.912464,218.299877 309.619211,201.80742 306.425781,189.716797 C304.305604,181.689609 297.235203,174.493896 293.149414,166.769531 C286.68505,154.548364 284.590325,138.170009 283.457031,131.378906 C280.889864,115.99551 284.044728,93.5983748 283.457031,92.0058594 C282.133217,88.4186449 273.169565,86.8038754 263.325195,80.0253906 C255.521935,74.6523414 249.899895,66.2913308 245.348633,61.921875 C232.030381,49.1356397 234.639365,50.4503105 226.584961,32.4453125 C221.281175,20.5891078 197.810547,0 197.810547,0 L194.46875,0 L206.481445,0 C206.481445,0 220.330569,14.0657105 230.017967,27.0712891 C234.529665,33.1283594 234.952145,39.8109735 236.986156,43.1855469 C242.50777,52.3463122 255.45297,64.7140053 267.07579,73.5830078 C279.52359,83.0815263 290.495757,88.7763672 290.495757,88.7763672 C290.495757,88.7763672 284.597439,162.557617 313.28462,180.783203 C320.92736,185.638801 314.952983,212.303258 316.078507,220.601562 C317.428053,230.551541 318.545955,243.828379 317.714369,249.290039 C316.636265,256.370766 309.849609,258.022461 309.849609,258.022461 C309.849609,258.022461 313.257736,257.046776 306.425781,225.326172 Z" id="Rectangle-69" fill="#000000" sketch:type="MSShapeGroup"></path>
            <path d="M309.183594,225.59375 C307.70833,218.567455 313.493011,204.007615 310.379883,191.916992 C308.313019,183.889805 301.080705,178.033935 297.097656,170.30957 C290.795843,158.088403 287.465147,144.769619 286.360352,137.978516 C283.857737,122.595119 285.033856,92.3766951 284.460938,90.7841797 C283.170412,87.1969652 273.474755,83.7267269 263.87793,76.9482422 C256.270888,71.5751929 248.922169,62.9905496 244.485352,58.6210938 C231.501997,45.8348584 235.951479,50.1260918 228.099609,32.1210938 C222.929191,20.264889 199.546875,0 199.546875,0 L197.768555,0 L204.533203,0 C204.533203,0 219.76323,14.0657105 229.207031,27.0712891 C233.60528,33.1283594 234.017136,39.8109735 236,43.1855469 C241.38277,52.3463122 254.002452,64.7140053 265.333008,73.5830078 C277.467799,83.0815263 288.164063,88.7763672 288.164063,88.7763672 C288.164063,88.7763672 282.414063,162.557617 310.379883,180.783203 C317.83044,185.638801 312.006293,212.303258 313.103516,220.601562 C314.419126,230.551541 315.508918,243.828379 314.698242,249.290039 C313.647248,256.370766 310.379883,254.149414 310.379883,254.149414 C310.379883,254.149414 315.843754,257.314354 309.183594,225.59375 Z" id="Rectangle-69" fill="#FFE25D" sketch:type="MSShapeGroup"></path>
            <path d="M-0.790041991,444.191406 L241.89642,412.035156 C241.89642,412.035156 258.372793,403.258016 260.024559,406.1877 C261.7925,409.323438 249.207841,363.2442 251.235743,367.636918 C253.218736,371.932359 267.00572,342.628952 269.665646,349.611328 C272.144086,356.117296 276.107058,358.489849 278.519528,367.636902 C279.324597,370.689378 291.671049,364.363204 292.474606,367.636902 C293.599261,372.218751 291.559201,382.34413 292.474606,387.464844 C292.605395,388.196468 322.916173,391.933344 319.525506,360.280485 C314.95061,317.572516 327.370206,250.838132 319.525506,184.906448 C317.586761,168.612048 299.266526,157.31788 297.154322,141.216019 C295.033513,125.04856 297.655158,94.3070235 294.644747,80.1261749 C293.809498,76.191653 298.092293,75.7516976 297.154324,72.0205112 C296.309126,68.6583576 270.518013,76.2807992 269.665649,73.0539093 C267.482088,64.7873663 245.370582,53.3136946 243.574933,46.1584015 C243.297143,45.0514668 241.047382,43.225391 241.89642,42.2343768 C244.208754,39.5353753 251.916703,37.9436584 251.235745,35.2460955 C244.88596,10.0919084 241.79522,0.403834723 241.896419,1.03535253 C241.95475,1.39935363 249.264143,-10.3535139 251.235745,-2.5400392 C251.480822,-1.56879995 261.42627,24.4619153 260.024564,33.2119158 C258.929376,40.0485056 259.13672,39.9846426 256.84863,42.2343784 C255.588217,43.4736636 283.59863,63.2099643 283.59863,63.2099643 C283.59863,63.2099643 293.047535,59.1381736 304.966794,60.8867222 C311.021707,61.7749745 310.094164,80.9529434 311.43945,84.244144 C320.067909,105.353403 303.459044,127.083661 312.607419,149.932621 C319.175533,166.337127 329.658741,162.754884 334.846677,180.299808 C340.90702,200.795104 330.417561,257.58309 334.846677,274.488269 C337.430679,284.350966 326.422764,286.596474 328.488828,294.523426 C331.359028,305.535644 334.672131,313.568187 336.110349,319.453113 C337.055628,323.321025 335.037149,335.585048 333.613278,338.465808 C333.144811,339.413608 332.962509,364.26839 332.280271,373.287098 C330.959118,390.751789 328.909372,399.333791 328.488828,406.187702 C328.012583,413.949401 330.399627,435.591312 328.488828,444.191394 C326.895785,451.361324 331.330055,463.23848 351.163704,439.484574 C356.324848,433.303294 365.582768,424.496286 387.409177,406.187702 C394.953634,399.859207 398.343612,400.998585 406.538083,394.272449 C436.872905,369.373202 481.111805,330.575674 472.039823,338.465808 C461.059743,348.015463 503.895284,363.484721 463.494992,399.431385 C453.552619,408.277735 436.075443,419.917615 418.25903,431.029102 C409.08135,436.752907 427.984703,470.405971 418.25903,476.053455 C411.047913,480.240792 480.440845,468.706882 472.039823,471.040332 C456.175117,475.446879 552.900479,424.48121 521.757138,427.825183 C515.556633,428.490954 564.92238,366.843279 555.235288,369.106433 C548.447429,370.692252 564.280138,322.030755 555.235288,325.3904 C547.448202,328.282856 552.839079,242.715494 543.427854,247.535358 C540.172897,249.202351 559.912583,212.849097 560.888547,181.828327 C561.344749,167.328065 547.79584,140.149953 546.143857,141.216022 C541.161375,144.431352 583.377644,136.613796 577.999265,141.216022 C564.032629,153.167134 606.712252,240.79184 589.505795,260.310199 C586.283616,263.965319 606.495988,302.940112 603.065244,306.637531 C597.957296,312.142522 611.388153,334.070421 618.493283,347.10213 C622.822374,355.042232 617.952948,361.96393 626.232114,351.889667 C638.55793,336.891355 620.185803,322.686694 618.493283,324.000019 C608.019037,332.127591 640.328877,271.466973 627.793576,279.022052 C626.687098,279.688932 625.383742,246.438801 620.778562,212.953067 C616.540948,182.140034 615.577172,152.233914 613.30853,146.408023 C613.034229,145.703617 618.620305,138.111457 618.493283,138.1888 C612.355188,141.926264 659.979258,224.214842 653.447141,229.03313 C647.478457,233.435812 668.211025,294.718866 661.717099,299.560413 C658.55116,301.920779 675.44061,341.833149 675.44061,341.833149 C675.44061,341.833149 683.376892,245.45541 679.003964,253.237415 C661.769563,283.90753 667.317441,186.751743 667.317441,186.751743 C667.317441,186.751743 633.474423,153.253912 633.474423,103.423893 C633.474423,87.9158784 664.254138,94.7741554 682.649411,107.741848 C697.981457,118.550127 711.151056,127.352769 712.999997,138.1888 C733.458141,258.087233 703.11745,494.035371 703.11745,494.035371 L-0.790041991,494.035356 L-0.790041991,444.191406 Z M95.7011753,180.134771 C104.587614,168.111877 89.7444044,189.465335 95.7011753,145.37911 C97.7273422,130.383393 76.3202945,122.94793 75.9106098,107.304685 C75.6035708,95.5808227 60.5776674,50.9559103 59.3203121,42.0703141 C58.6135488,37.0756926 18.6384837,41.6647353 18.0996093,37.7578141 C14.9993115,15.2801843 20.2929689,18.4140622 20.2929689,18.4140622 C20.2929689,18.4140622 67.2817699,-5.46857692 80.3437504,-5.10156237 C100.433409,-4.53708464 61.4454773,25.3962205 85.7949222,29.7773453 C93.2513884,31.1189656 103.178455,98.5279303 113.208985,99.1289078 C130.503748,100.165121 154.757873,127.475554 163.501953,137.531244 C182.123275,158.945759 186.947029,159.093954 186.947029,159.093954 C186.947029,159.093954 175.748115,79.2672902 177.707035,84.0781228 C184.963053,101.897888 221.695853,158.757056 230.437976,199.207037 C235.880183,224.388237 259.493143,294.437394 260.794925,315.455068 C262.89216,349.315569 230.437982,330.453329 230.437982,330.453329 C230.437982,330.453329 209.582633,225.830541 183.117191,216.689459 C170.448165,212.313616 119.343753,210.417974 119.343753,210.417974 C119.343753,210.417974 94.1272166,182.264256 95.7011753,180.134771 Z" id="Rectangle-65" fill="#000000" sketch:type="MSShapeGroup"></path>
            <path d="M0,450 L255.28125,414.695313 C255.28125,414.695313 262.510491,402.22266 264.183594,405.152344 C265.974371,408.288082 253.227154,362.208844 255.28125,366.601562 C257.289858,370.897003 267.391653,348.80278 270.085938,355.785156 C272.596391,362.291124 273.15793,365.860758 275.601562,375.007812 C276.41703,378.060287 287.55325,367.652082 288.367188,370.92578 C289.50637,375.50763 287.439958,386.906629 288.367188,392.027343 C288.499666,392.758967 327.88759,390.897988 324.453125,359.245129 C319.819135,316.537161 332.399157,249.802776 324.453125,183.871092 C322.489337,167.576692 303.932457,156.282524 301.792969,140.180663 C299.644765,124.013205 302.300274,93.2716676 299.250977,79.090819 C298.404939,75.1562971 302.743053,71.3405601 301.792969,67.6093737 C300.936853,64.2472202 274.812593,75.2454433 273.949219,72.0185534 C271.737453,63.7520104 249.340328,52.2783387 247.521484,45.1230456 C246.473781,41.0014029 254.642235,35.9273056 253.699219,32.2392567 C247.267412,7.08506961 245.718783,-0.631521163 245.821289,-3.35105471e-06 C245.880373,0.363997747 254.904297,18.9384791 256.901367,26.7519538 C257.587547,29.4366121 248.438137,44.4617091 255.28125,50.5322253 C261.820191,56.3329106 273.53713,64.7739111 285.610352,66.5224597 C291.743477,67.410712 299.426275,60.4226076 303.582031,63.0839831 C307.601133,65.6578443 306.018196,78.0427864 307.380859,81.3339871 C316.120774,102.443246 298.114313,126.169597 307.380859,149.018557 C314.033815,165.423063 325.662043,163.248047 330.916992,180.792971 C337.055618,201.288267 326.430665,253.617269 330.916992,270.522448 C333.534373,280.385145 322.360374,287.286903 324.453125,295.213855 C327.360401,306.226073 332.075431,318.022288 333.532227,323.907214 C334.804741,329.047709 329.450351,338.478748 329.450351,338.478748 C329.450351,338.478748 331.608044,341.683428 330.916992,350.702136 C329.578774,368.166827 324.879101,398.298432 324.453125,405.152343 C323.970729,412.914043 326.388607,441.399917 324.453125,449.999999 C322.839505,457.169928 336.410156,462.203124 356.5,438.449218 C370.224228,422.221913 406.320002,397.791335 385.046875,419.320312 C380.422704,424.000098 487.931013,328.519294 469.078125,344.707031 C457.956214,354.256686 499.582306,363.061148 458.660156,399.007811 C448.589356,407.854161 432.588948,418.675505 414.542398,429.786991 C405.246168,435.510796 424.39369,474.067366 414.542389,479.71485 C407.238125,483.902187 487.44704,470.186088 478.9375,472.519537 C462.867867,476.926084 558.576875,422.374776 527.03125,425.718749 C520.750652,426.384519 569.917691,364.338406 560.105469,366.601561 C553.22993,368.18738 569.267153,317.913794 560.105469,321.273438 C552.217796,324.165895 559.595292,241.680136 550.0625,246.5 C546.765499,248.166993 564.839554,211.813739 565.828125,180.792969 C566.29022,166.292706 551.735822,142.222991 550.0625,143.28906 C545.015658,146.50439 578.557228,138.686834 573.109375,143.28906 C558.962329,155.240173 603.69434,238.98164 586.265625,258.5 C583.001824,262.155119 602.545373,301.169769 599.070312,304.867187 C590.743958,313.726319 632.137629,366.486322 622.519531,375.007812 C619.722908,377.485579 605.260326,382.393826 627.410156,355.785156 C639.895187,340.786844 624.233914,319.960113 622.519531,321.273437 C611.909987,329.40101 644.369097,268.847264 631.671875,276.402344 C629.395093,277.757071 617.782805,141.876875 615.433594,143.28906 C609.216212,147.026524 656.557901,222.841868 649.941406,227.660156 C643.895624,232.062838 664.855153,295.010015 658.277344,299.851562 C655.07051,302.211929 672.70124,342.332155 669.347656,344.707031 C660.20956,351.178273 688.560583,338.557161 682.375,344.707031 C674.311776,352.723702 686.804414,238.717995 682.375,246.5 C664.917979,277.170115 666.485417,131.717871 676.695312,180.792969 C681.102908,201.978608 636.703125,157.861269 636.703125,108.03125 C636.703125,79.5976553 708.880176,119.45204 713,143.28906 C733.722406,263.187492 713,493.000015 713,493.000015 L0,493 L0,450 Z M100.917966,179.007817 C109.919193,166.984922 94.8842504,188.429979 100.917966,144.343754 C102.970305,129.348037 81.0848996,121.307304 80.669923,105.664059 C80.3589179,93.9401964 62.9903947,47.0457528 61.716798,38.1601566 C61.0009053,33.1655351 22.2352883,39.3034059 21.6894531,35.3964847 C18.5491082,12.9188549 21.6894531,22.8886719 21.6894531,22.8886719 C21.6894531,22.8886719 64.4607017,-0.367014554 77.6914062,3.55271368e-14 C98.0405665,0.564477721 53.0274359,24.6188756 77.6914074,29.0000003 C85.2441902,30.3416206 100.023495,101.871675 110.183591,102.472653 C127.701754,103.508866 154.027734,134.288064 162.884763,144.343754 C181.74662,165.758269 190.162107,158.058598 190.162107,158.058598 C190.162107,158.058598 179.322415,90.6676795 181.306638,95.4785121 C188.656383,113.298278 215.27581,160.065649 224.130857,200.515629 C229.643362,225.69683 253.657962,287.902251 254.97656,308.919926 C257.100885,342.780427 234.214841,329.417973 234.214841,329.417973 C234.214841,329.417973 213.051439,221.80515 186.244138,212.664067 C173.411464,208.288224 123.080075,206.449223 123.080075,206.449223 C123.080075,206.449223 99.3236762,181.137302 100.917966,179.007817 Z" id="Rectangle-65" fill="#A2CCFF" sketch:type="MSShapeGroup"></path>
            <path d="M223.369136,311.023438 C234.311163,320.084398 252.062677,338.189486 252.062677,338.189486 C252.062677,338.189486 233.584263,341.475784 256.509758,317.25 C258.447248,315.202619 281.90292,287.211788 283.951866,285.041016 C314.809577,252.348564 360.015808,205.441967 400.607414,163.488281 C433.86426,129.115478 461.816119,98.9766298 483.373039,73.1523438 C500.924484,52.1264494 527.574211,0 527.574211,0 L540.527336,0 C540.527336,0 518.197969,50.9231721 499.521477,73.1523438 C476.036529,101.104645 444.626188,135.772428 410.134758,171.099625 C362.99844,219.37811 316.738326,268.762718 283.951859,302.769531 C268.100462,319.210934 258.555594,339.548515 252.062663,346.396484 C248.609633,350.038329 212.181636,322.052734 212.181636,322.052734 C212.181636,322.052734 187.533387,325.101926 175.5395,322.052734 C160.257058,318.167497 156.97189,312.901839 141.689448,309.016602 C141.689448,309.016602 130.59268,299.242433 125.347651,298.798828 C114.907576,297.915846 84.5155808,296.745772 80.2285183,295.259766 C73.2748725,292.849452 63.8436459,284.757566 50.925784,281.943359 C34.685444,278.405337 15.2094501,276.299546 -9.52016478e-07,274.476562 C-34.7659087,270.30957 -5.4453126,262.822266 -5.4453126,262.822266 C-5.4453126,262.822266 49.3830971,270.37767 50.925784,270.878906 C56.7023922,272.755791 70.606581,280.797895 90.2929715,285.041016 C103.900696,287.973966 123.802844,286.192723 137.591792,290.367188 C163.540477,298.22289 174.000872,309.135285 175.5395,309.016602 C180.786883,308.61184 196.869166,306.335657 196.914058,306.140625 C196.997899,305.776372 216.833464,309.016602 216.833464,309.016602 C216.833464,309.016602 222.568092,310.360103 223.369136,311.023438 Z" id="Rectangle-67" fill="#000000" sketch:type="MSShapeGroup"></path>
            <path d="M246.811665,338.189486 C246.811665,338.189486 257.002379,319.485549 279.479484,295.259766 C281.37908,293.212385 286.381745,286.957882 288.390617,284.787109 C318.644796,252.094658 361.984525,210.445874 401.782219,168.492188 C434.388609,134.119384 466.185983,100.410224 487.321281,74.5859375 C504.529445,53.5600432 530.567375,0 530.567375,0 L535,0 C535,0 512.944019,50.9231721 494.632813,73.1523438 C471.607196,101.104645 439.138109,135.772428 405.321281,171.099625 C359.106882,219.37811 310.222352,268.762718 278.077141,302.769531 C262.535774,319.210934 255.414759,335.059257 249.04882,341.907227 C245.663326,345.549071 211.164063,313.923828 211.164063,313.923828 C211.164063,313.923828 183.54446,320.299192 171.785156,317.25 C156.801617,313.364763 147.333149,302.684065 132.349609,298.798828 C132.349609,298.798828 126.39928,295.70337 121.256836,295.259766 C111.020953,294.376783 81.295987,292.280929 77.0927733,290.794922 C70.2751307,288.384608 62.2364962,280.749754 49.571289,277.935547 C33.6485865,274.397525 14.9119762,273.159897 -5.12580982e-08,271.336914 C-34.085937,267.169922 -4.50976568,266.988281 -4.50976568,266.988281 C-4.50976568,266.988281 45.4944181,272.620048 47.0069323,273.121285 C52.6705584,274.99817 66.9105608,283.666059 86.211914,287.90918 C99.5534907,290.84213 116.443635,288.696629 129.962891,292.871094 C155.404057,300.726796 170.276629,312.306183 171.785164,312.1875 C176.929916,311.782739 189.706963,312.382532 189.750977,312.1875 C189.833178,311.823247 212.271484,309.016602 212.271484,309.016602 L246.811665,338.189486 Z" id="Rectangle-67" fill="#FC9F00" sketch:type="MSShapeGroup"></path>
            <g id="Group" sketch:type="MSLayerGroup" transform="translate(263.000000, 203.000000)">
                <path d="M13.9349293,47.4921875 C13.9349293,47.4921875 26.2106264,20.0951155 28.5855644,14.4085394 C30.9605024,8.72196337 22.7356227,0 13.9349293,0 C5.13423589,0 -2.723151,6.90247733 0.907486932,14.4085394 C4.53812487,21.9146015 13.9349293,47.4921875 13.9349293,47.4921875 Z" id="Oval-21" fill="#000000" sketch:type="MSShapeGroup"></path>
                <path d="M14.3682674,44.4921875 C14.3682674,44.4921875 24.3829151,19.9794922 26.3204155,14.8916016 C28.2579159,9.80371094 21.5479692,2 14.3682674,2 C7.18856569,2 0.778423684,8.17578125 3.74033775,14.8916016 C6.70225181,21.6074219 14.3682674,44.4921875 14.3682674,44.4921875 Z" id="Oval-21" fill="#F96353" sketch:type="MSShapeGroup"></path>
                <circle id="Oval-22" fill="#000000" sketch:type="MSShapeGroup" cx="14" cy="13" r="6"></circle>
            </g>
        </g>
    </g>
</svg>