<svg viewBox="0 0 713 493" xmlns="http://www.w3.org/2000/svg"><g fill="none" fill-rule="evenodd"><path fill="#d2e5c7" d="m0 0h713v493h-713z"/><path d="m356.5 380.66c-18.929-10.923-16.719-87.08-14.25-110.09 2.816-26.24 80.39-71.15 88.3-91.95 17.397-45.7 72.04-26.23 72.04-26.23 0 0 40.25-24.21 32.789 19.449-1.447 8.473 15.794-1.58 14.629 6.777-7.407 53.13-28.724 120.5-40.758 140.61-23.681 39.555-64.56-48.66-78.7-48.66-24.2 0-19.555 65.43-19.555 65.43 0 0-37.907 54.23-54.5 44.66m183.23-257.65c-18.929-10.923-58.953 7.574-56.48-15.434 2.816-26.24 76.03-86.78 83.949-107.57 17.397-45.7 76.39-10.598 76.39-10.598 0 0 101.69-22.446 94.23 21.21-1.447 8.473 12.03 38.29 0 58.39-16.51 27.577-42.33-24.424-86.45-22.18-19.16.973-47.821 56.17-52.1 56.17-24.2 0 13.728 28.656 13.728 28.656 0 0-56.674.938-73.27-8.637m-551.5 267c-18.929-10.923-58.953 7.574-56.48-15.434 2.816-26.24 43.801-141.46 51.715-162.25 17.397-45.7 108.62 44.08 108.62 44.08 0 0 101.69-22.446 94.23 21.21-1.447 8.473 12.03 38.29 0 58.39-16.51 27.577 69.824 51.768 25.707 54.01-19.16.973-159.97-20.02-164.25-20.02-24.2 0 13.728 28.656 13.728 28.656 0 0-56.674.938-73.27-8.637" fill="#e7e7e7"/><path d="m306.43 225.33c-1.513-7.03 3.193-23.519 0-35.609-2.12-8.03-9.191-15.223-13.276-22.947-6.464-12.221-8.559-28.6-9.692-35.391-2.567-15.383.588-37.781 0-39.37-1.324-3.587-10.287-5.202-20.13-11.98-7.803-5.373-13.425-13.734-17.977-18.1-13.318-12.786-10.709-11.472-18.764-29.477-5.304-11.856-28.774-32.445-28.774-32.445h-3.342 12.01c0 0 13.849 14.07 23.537 27.07 4.512 6.06 4.934 12.74 6.968 16.11 5.522 9.161 18.467 21.528 30.09 30.397 12.448 9.499 23.42 15.193 23.42 15.193 0 0-5.898 73.78 22.789 92.01 7.643 4.856 1.668 31.52 2.794 39.818 1.35 9.95 2.467 23.23 1.636 28.688-1.078 7.081-7.865 8.732-7.865 8.732 0 0 3.408-.976-3.424-32.696" fill="#000"/><path d="m309.18 225.59c-1.475-7.03 4.309-21.586 1.196-33.677-2.067-8.03-9.299-13.883-13.282-21.607-6.302-12.221-9.633-25.54-10.737-32.33-2.503-15.383-1.326-45.602-1.899-47.19-1.291-3.587-10.986-7.06-20.583-13.836-7.607-5.373-14.956-13.958-19.393-18.327-12.983-12.786-8.534-8.495-16.386-26.5-5.17-11.856-28.553-32.12-28.553-32.12h-1.778 6.765c0 0 15.23 14.07 24.674 27.07 4.398 6.06 4.81 12.74 6.793 16.11 5.383 9.161 18 21.528 29.333 30.397 12.135 9.499 22.831 15.193 22.831 15.193 0 0-5.75 73.78 22.22 92.01 7.451 4.856 1.626 31.52 2.724 39.818 1.316 9.95 2.405 23.23 1.595 28.688-1.051 7.081-4.318 4.859-4.318 4.859 0 0 5.464 3.165-1.196-28.556" fill="#ffe25d"/><path d="m-.79 444.19l242.69-32.16c0 0 16.476-8.777 18.13-5.847 1.768 3.136-10.817-42.944-8.789-38.551 1.983 4.295 15.77-25.01 18.43-18.03 2.478 6.506 6.441 8.879 8.854 18.03.805 3.052 13.152-3.274 13.955 0 1.125 4.582-.915 14.707 0 19.828.131.732 30.442 4.468 27.05-27.18-4.575-42.708 7.845-109.44 0-175.37-1.939-16.294-20.259-27.589-22.371-43.69-2.121-16.17.501-46.909-2.51-61.09-.835-3.935 3.448-4.374 2.51-8.106-.845-3.362-26.636 4.26-27.489 1.033-2.184-8.267-24.295-19.74-26.09-26.896-.278-1.107-2.528-2.933-1.679-3.924 2.312-2.699 10.02-4.291 9.339-6.988-6.35-25.15-9.441-34.842-9.339-34.21.058.364 7.368-11.389 9.339-3.575.245.971 10.191 27 8.789 35.752-1.095 6.837-.888 6.773-3.176 9.02-1.26 1.239 26.75 20.976 26.75 20.976 0 0 9.449-4.072 21.368-2.323 6.05.888 5.127 20.07 6.473 23.357 8.628 21.11-7.98 42.84 1.168 65.69 6.568 16.405 17.05 12.822 22.24 30.367 6.06 20.495-4.429 77.28 0 94.19 2.584 9.863-8.424 12.11-6.358 20.04 2.87 11.01 6.183 19.04 7.622 24.93.945 3.868-1.073 16.13-2.497 19.01-.468.948-.651 25.803-1.333 34.821-1.321 17.465-3.371 26.05-3.791 32.901-.476 7.762 1.911 29.404 0 38-1.593 7.17 2.841 19.05 22.675-4.707 5.161-6.181 14.419-14.988 36.25-33.3 7.544-6.328 10.934-5.189 19.13-11.915 30.335-24.899 74.57-63.697 65.5-55.807-10.98 9.55 31.855 25.02-8.545 60.966-9.942 8.846-27.42 20.486-45.24 31.598-9.178 5.724 9.726 39.38 0 45.02-7.211 4.187 62.18-7.347 53.781-5.01-15.865 4.407 80.86-46.559 49.717-43.22-6.201.666 43.17-60.982 33.478-58.719-6.788 1.586 9.04-47.08 0-43.716-7.787 2.892-2.396-82.67-11.807-77.855-3.255 1.667 16.485-34.686 17.461-65.71.456-14.5-13.09-41.678-14.745-40.612-4.982 3.215 37.23-4.602 31.855 0-13.967 11.951 28.713 99.58 11.507 119.09-3.222 3.655 16.99 42.63 13.559 46.33-5.108 5.505 8.323 27.433 15.428 40.465 4.329 7.94-.54 14.862 7.739 4.788 12.326-14.998-6.05-29.2-7.739-27.89-10.474 8.128 21.836-52.53 9.3-44.978-1.106.667-2.41-32.583-7.02-66.07-4.238-30.813-5.201-60.719-7.47-66.55-.274-.704 5.312-8.297 5.185-8.219-6.138 3.737 41.486 86.03 34.954 90.84-5.969 4.403 14.764 65.69 8.27 70.53-3.166 2.36 13.724 42.27 13.724 42.27 0 0 7.936-96.38 3.563-88.6-17.234 30.67-11.687-66.49-11.687-66.49 0 0-33.843-33.498-33.843-83.33 0-15.508 30.78-8.65 49.17 4.318 15.332 10.808 28.502 19.611 30.351 30.447 20.458 119.9-9.883 355.85-9.883 355.85h-703.91v-49.844m96.49-264.06c8.886-12.02-5.957 9.331 0-34.756 2.026-14.996-19.381-22.431-19.791-38.07-.307-11.724-15.333-56.35-16.59-65.23-.707-4.995-40.682-.406-41.22-4.313-3.1-22.478 2.193-19.344 2.193-19.344 0 0 46.989-23.883 60.05-23.516 20.09.564-18.898 30.498 5.451 34.879 7.456 1.342 17.384 68.751 27.414 69.35 17.295 1.036 41.549 28.347 50.29 38.4 18.621 21.415 23.445 21.563 23.445 21.563 0 0-11.199-79.83-9.24-75.02 7.256 17.82 43.989 74.68 52.731 115.13 5.442 25.18 29.06 95.23 30.357 116.25 2.097 33.861-30.357 14.998-30.357 14.998 0 0-20.855-104.62-47.32-113.76-12.669-4.376-63.773-6.271-63.773-6.271 0 0-25.22-28.15-23.643-30.28" fill="#000"/><path d="m0 450l255.28-35.3c0 0 7.229-12.473 8.902-9.543 1.791 3.136-10.956-42.944-8.902-38.551 2.01 4.295 12.11-17.799 14.805-10.816 2.51 6.506 3.072 10.08 5.516 19.223.815 3.052 11.952-7.356 12.766-4.082 1.139 4.582-.927 15.981 0 21.1.132.732 39.52-1.129 36.09-32.782-4.634-42.708 7.946-109.44 0-175.37-1.964-16.294-20.521-27.589-22.66-43.69-2.148-16.17.507-46.909-2.542-61.09-.846-3.935 3.492-7.75 2.542-11.481-.856-3.362-26.98 7.636-27.844 4.409-2.212-8.267-24.609-19.74-26.428-26.896-1.048-4.122 7.121-9.196 6.178-12.884-6.432-25.15-7.98-32.871-7.878-32.24.059.364 9.08 18.938 11.08 26.752.686 2.685-8.463 17.71-1.62 23.78 6.539 5.801 18.256 14.242 30.33 15.99 6.133.888 13.816-6.1 17.972-3.438 4.02 2.574 2.436 14.959 3.799 18.25 8.74 21.11-9.267 44.836 0 67.68 6.653 16.405 18.281 14.229 23.536 31.774 6.139 20.495-4.486 72.824 0 89.73 2.617 9.863-8.557 16.764-6.464 24.691 2.907 11.01 7.622 22.808 9.08 28.693 1.273 5.14-4.082 14.572-4.082 14.572 0 0 2.158 3.205 1.467 12.223-1.338 17.465-6.04 47.596-6.464 54.45-.482 7.762 1.935 36.25 0 44.848-1.614 7.17 11.957 12.203 32.05-11.551 13.724-16.227 49.82-40.658 28.547-19.13-4.624 4.68 102.88-90.8 84.03-74.61-11.122 9.55 30.504 18.354-10.418 54.3-10.07 8.846-26.07 19.668-44.12 30.779-9.296 5.724 9.851 44.28 0 49.928-7.304 4.187 72.905-9.529 64.4-7.195-16.07 4.407 79.64-50.14 48.09-46.801-6.281.666 42.886-61.38 33.07-59.12-6.876 1.586 9.162-48.688 0-45.33-7.888 2.892-.51-79.59-10.04-74.77-3.297 1.667 14.777-34.686 15.766-65.71.462-14.5-14.09-38.57-15.766-37.504-5.05 3.215 28.495-4.602 23.05 0-14.15 11.951 30.585 95.69 13.156 115.21-3.264 3.655 16.28 42.67 12.805 46.37-8.326 8.859 33.07 61.62 23.449 70.14-2.797 2.478-17.259 7.386 4.891-19.223 12.485-14.998-3.176-35.825-4.891-34.512-10.61 8.128 21.85-52.43 9.152-44.871-2.277 1.355-13.889-134.53-16.238-133.11-6.217 3.737 41.12 79.55 34.508 84.37-6.05 4.403 14.914 67.35 8.336 72.19-3.207 2.36 14.424 42.481 11.07 44.855-9.138 6.471 19.213-6.15 13.03 0-8.06 8.02 4.429-105.99 0-98.21-17.457 30.67-15.89-114.78-5.68-65.71 4.408 21.19-39.992-22.932-39.992-72.76 0-28.434 72.18 11.421 76.3 35.26 20.722 119.9 0 349.71 0 349.71h-713v-43m100.92-270.99c9-12.02-6.03 9.422 0-34.664 2.052-14.996-19.833-23.04-20.248-38.68-.311-11.724-17.68-58.62-18.953-67.5-.716-4.995-39.482 1.143-40.03-2.764-3.14-22.478 0-12.508 0-12.508 0 0 42.771-23.256 56-22.889 20.349.564-24.664 24.619 0 29 7.553 1.342 22.332 72.872 32.492 73.47 17.518 1.036 43.844 31.815 52.701 41.871 18.862 21.415 27.28 13.715 27.28 13.715 0 0-10.84-67.39-8.855-62.58 7.35 17.82 33.969 64.59 42.824 105.04 5.513 25.18 29.527 87.39 30.846 108.4 2.124 33.861-20.762 20.498-20.762 20.498 0 0-21.16-107.61-47.971-116.75-12.833-4.376-63.16-6.215-63.16-6.215 0 0-23.756-25.312-22.16-27.441" fill="#a2ccff"/><path d="m223.37 311.02c10.942 9.06 28.694 27.17 28.694 27.17 0 0-18.478 3.286 4.447-20.939 1.937-2.047 25.393-30.04 27.442-32.21 30.858-32.692 76.06-79.6 116.66-121.55 33.26-34.37 61.21-64.51 82.77-90.34 17.551-21.03 44.2-73.15 44.2-73.15h12.953c0 0-22.329 50.923-41.01 73.15-23.485 27.952-54.895 62.62-89.39 97.95-47.14 48.28-93.4 97.66-126.18 131.67-15.851 16.441-25.396 36.779-31.889 43.627-3.453 3.642-39.881-24.344-39.881-24.344 0 0-24.648 3.049-36.642 0-15.282-3.885-18.568-9.151-33.85-13.04 0 0-11.1-9.774-16.342-10.218-10.44-.883-40.832-2.053-45.12-3.539-6.954-2.41-16.385-10.502-29.3-13.316-16.24-3.538-35.716-5.644-50.926-7.467-34.766-4.167-5.445-11.654-5.445-11.654 0 0 54.828 7.555 56.37 8.06 5.777 1.877 19.681 9.919 39.37 14.162 13.608 2.933 33.51 1.152 47.3 5.326 25.949 7.856 36.409 18.768 37.948 18.649 5.247-.405 21.33-2.681 21.375-2.876.084-.364 19.919 2.876 19.919 2.876 0 0 5.735 1.344 6.536 2.01" fill="#000"/><path d="m246.81 338.19c0 0 10.191-18.704 32.668-42.93 1.9-2.047 6.902-8.302 8.911-10.473 30.25-32.692 73.59-74.34 113.39-116.29 32.606-34.37 64.4-68.08 85.54-93.91 17.208-21.03 43.25-74.59 43.25-74.59h4.433c0 0-22.06 50.923-40.37 73.15-23.03 27.952-55.49 62.62-89.31 97.95-46.21 48.28-95.1 97.66-127.24 131.67-15.541 16.441-22.662 32.29-29.03 39.14-3.385 3.642-37.885-27.983-37.885-27.983 0 0-27.62 6.375-39.38 3.326-14.984-3.885-24.452-14.566-39.436-18.451 0 0-5.95-3.095-11.09-3.539-10.236-.883-39.961-2.979-44.16-4.465-6.818-2.41-14.856-10.05-27.521-12.859-15.923-3.538-34.659-4.776-49.571-6.599-34.09-4.167-4.51-4.349-4.51-4.349 0 0 50 5.632 51.52 6.133 5.664 1.877 19.904 10.545 39.2 14.788 13.342 2.933 30.23.787 43.751 4.962 25.441 7.856 40.31 19.435 41.822 19.316 5.145-.405 17.922.195 17.966 0 .082-.364 22.521-3.171 22.521-3.171l34.54 29.17" fill="#fc9f00"/><g transform="translate(263 203)"><path d="m13.935 47.49c0 0 12.276-27.397 14.651-33.08 2.375-5.687-5.85-14.409-14.651-14.409-8.801 0-16.658 6.902-13.03 14.409 3.631 7.506 13.03 33.08 13.03 33.08" fill="#000"/><path d="m14.368 44.492c0 0 10.01-24.513 11.952-29.601 1.938-5.088-4.772-12.892-11.952-12.892-7.18 0-13.59 6.176-10.628 12.892 2.962 6.716 10.628 29.601 10.628 29.601" fill="#f96353"/><circle fill="#000" cx="14" cy="13" r="6"/></g></g></svg>