<svg viewBox="0 0 415 367" xmlns="http://www.w3.org/2000/svg" preserveAspectRatio="none"><g fill="none" fill-rule="evenodd"><path d="m207.64 183.05c-27.299 24.05-69.78 60.01-104.35 89.93-57.18 49.49-103.29 90.02-103.29 90.02 0 0 2.474 4.615 4.787 2.566 53.34-47.22 133.94-113.52 207.73-178.2 23.857 21.384 53.752 53.08 85.11 81.48 56.24 50.938 112.38 97.24 112.38 97.24 0 0 8.835-.155 2.172-6.217-17.4-15.829-71.69-59.35-119.77-103.1-27.741-25.24-42.587-45.27-74.959-73.73 32.372-28.46 60.38-58.02 88.12-83.26 48.08-43.751 89.2-77.74 106.6-93.57 6.663-6.06-2.172-6.217-2.172-6.217 0 0-56.13 46.3-112.37 97.24-31.354 28.398-61.25 60.1-85.11 81.48-73.79-64.68-154.39-130.97-207.73-178.2-2.313-2.048-4.787 2.566-4.787 2.566 0 0 46.12 40.534 103.29 90.02 34.567 29.92 77.05 65.882 104.35 89.93" fill="#000"/></g></svg>