<svg viewBox="0 0 49 50" xmlns="http://www.w3.org/2000/svg"><g fill="none" fill-rule="evenodd"><path d="m587.89 15.599h-13.894v25.16h13.428l13.476 12.257v-50.02l-13.01 12.599m-10.933 2.96h9.622v19.983h-9.622v-19.983m12.582 1l8.959-9.806v14.283 22.55l-8.959-9.02v-18m17.676 10.842c.391-4.551-3.584-10.421-1.891-10.421 1.544 0 5.292 5.805 4.858 10.421-.515 5.483-4.066 10.694-6.58 9.622-.996-.425 3.222-5.07 3.614-9.622m5.77-.217c.437-6.377-4-14.603-2.111-14.603 1.723 0 5.907 8.134 5.422 14.603-.575 7.682-4.539 14.985-7.345 13.482-1.112-.596 3.597-7.105 4.03-13.482m6.661-.026c.437-8.305-4-19.02-2.111-19.02 1.723 0 5.907 10.593 5.422 19.02-.575 10.01-4.539 19.516-7.345 17.558-1.112-.776 3.597-9.253 4.03-17.558" transform="translate(-574-3)" fill="#000"/></g></svg>