<svg viewBox="0 0 94 96" xmlns="http://www.w3.org/2000/svg"><g fill="none" fill-rule="evenodd"><path d="m23.652 86.72c7.429 5.129 23.09 8.787 32.666 8.787 10.778 0 20.669-8.622 26.719-14.48 8.52-8.251 10.963-16.204 10.963-32.03 0-13.92-6.378-24.978-15.318-33.898-8.44-8.422-19.08-15.1-31.682-15.1-11.954 0-25.645 7.438-33.939 15.1-9.716 8.977-13.06 19.3-13.06 33.898 0 17.08 10.947 28.951 23.652 37.723m1.58-7.465c6 3.605 19.411 9.662 26.871 9.662 22.368 0 34.14-13.934 34.14-36.854 0-22.92-16.381-44.07-38.748-44.07-22.368 0-40.5 18.58-40.5 41.5 0 15.275 6.238 22.553 18.232 29.758m7.453-57.752c1.36-1.833 11.907-.178 22.428 8.428 8.485 6.941 15.927 16.301 15.927 20.449 0 1.394-10.967 10.699-20.5 16.961-9.216 6.05-16.994 10.436-17.855 8.427-1.752-4.086-2.458-50.954 0-54.27m3.355 5.453c1.029-1.382 10.02 3.719 17.973 10.209 6.416 5.235 11.03 8.487 11.03 11.933 0 3.924-8.292 8.07-15.5 12.792-6.968 4.566-12.849 9.806-13.5 8.291-1.324-3.082-1.858-40.727 0-43.22" fill="#000"/></g></svg>