<svg viewBox="0 0 32 31" xmlns="http://www.w3.org/2000/svg"><g fill="none" fill-rule="evenodd"><path d="m25.2 132.6c-4.089-1.175-7.834-4.74-9.94-6.424-3.365-2.691-7.751-6.395-6.163-9.488.855-1.666 3.303-4.359 6.163-6.292 2.451-1.657 5.195-2.602 7.596-3.581 2.068-.843 3.867-2.607 6.112-2.991 3.402-.583 6.972.593 7.271 1.797.375 1.509 2.044 3.777 2.584 5.939.859 3.44.508 7.092 0 10.643-.822 5.747-4.907 10.397-4.907 10.397 0 0-4.516 1.206-8.715 0m-7.849-8.278c-2.894-2.211-6.667-5.254-5.301-7.796 1.366-2.542 6.753-5.517 11.227-7.26 4.474-1.743 9.692-3.388 10.119-1.745.835 3.212 4.426 9.398 3.714 14.15-.707 4.722-3.714 7.931-3.714 7.931 0 0-12.374-2.473-16.05-5.278" transform="translate(-8-103)" fill="#000"/></g></svg>